<svg xmlns="http://www.w3.org/2000/svg" width="11.2494in" height="3in" viewBox="0 0 809.9595 216"><defs><style>.a{fill:#ff6900;}</style></defs><title>brand-drive logo</title><path d="M255.0938,122.1807q0,11.1474-7.2729,16.8925-6.8049,5.2794-18.5352,5.2793H198.4332V76.0781h29.914a21.6127,21.6127,0,0,1,14.1944,5.0445,18.0158,18.0158,0,0,1,6.687,14.4292,17.1363,17.1363,0,0,1-3.6367,10.7924Q255.0943,112.0931,255.0938,122.1807ZM236.09,95.5518a5.73,5.73,0,0,0-2.1611-4.458,8.3311,8.3311,0,0,0-5.6621-1.877H211.5719v13.6079h16.6948a7.93,7.93,0,0,0,5.3706-2.17A6.6176,6.6176,0,0,0,236.09,95.5518Zm5.8653,26.6289q0-1.9923-2.337-3.9883-3.624-3.05-11.3349-3.05H211.5719v16.0713h17.5288q6.1919,0,9.1152-1.5254Q241.9557,127.5776,241.9552,122.1807Z"/><path d="M300.4928,95.7861a6.91,6.91,0,0,1-1.4078,4.458,5.2321,5.2321,0,0,1-4.3408,2.1114,12.998,12.998,0,0,1-1.7593-.1758,13.08,13.08,0,0,0-1.76-.1763,15.3849,15.3849,0,0,0-9.7368,3.4024,11.3321,11.3321,0,0,0-4.5752,9.0327v23.3447a6.1341,6.1341,0,0,1-1.9356,4.8682,6.78,6.78,0,0,1-4.6338,1.7011,6.2681,6.2681,0,0,1-4.458-1.6425,6.0594,6.0594,0,0,1-2.1113-4.9268V96.6074a6.1507,6.1507,0,0,1,2.0127-4.6924,6.8649,6.8649,0,0,1,4.8515-1.8769,5.5723,5.5723,0,0,1,4.44,2.2285,9.7249,9.7249,0,0,1,1.835,6.335v.2348a12.6625,12.6625,0,0,1,8.1713-8.5639,20.5939,20.5939,0,0,1,7.004-1.4078,13.8879,13.8879,0,0,1,3.1508.3521Q300.4908,90.5088,300.4928,95.7861Z"/><path d="M346.1265,144.47H316.564q-9.15,0-14.6049-5.1025t-5.4551-14.3711q0-10.0869,7.11-15.25,6.0594-4.5754,16.086-4.5752a16.1464,16.1464,0,0,1,7.11,1.9941q4.5447,2.23,5.9444,5.5137a9.41,9.41,0,0,0,.2329-2.2285q0-7.0393-7.07-8.7983-.58-.1158-4.9838-.4693a10.4914,10.4914,0,0,1-4.6377-1.5254,6.6948,6.6948,0,0,1-2.6651-5.5132q0-6.0988,8.4463-6.1005,10.0876,0,16.6582,4.9272,7.3909,5.5152,7.3906,15.2505Zm-13.1386-13.1386V126.17q0-4.106-4.6924-6.4521a18.1771,18.1771,0,0,0-8.4468-1.9942q-10.2056,0-10.2056,7.2725,0,6.3354,8.5635,6.335h14.7813Z"/><path d="M407.3624,137.7832a6.046,6.046,0,0,1-1.9942,4.8682,6.8483,6.8483,0,0,1-4.5752,1.7011,6.7748,6.7748,0,0,1-4.6337-1.7041,6.1639,6.1639,0,0,1-1.9356-4.8838V109.6494q0-7.177-7.5078-7.1767H370.41v35.2919a6.1625,6.1625,0,0,1-1.9355,4.8838,6.7777,6.7777,0,0,1-4.6338,1.7041,6.2679,6.2679,0,0,1-4.458-1.6425,6.0594,6.0594,0,0,1-2.1113-4.9268V89.334h29.4448q9.0323,0,14.84,5.6308t5.8067,14.7813Z"/><path d="M461.6768,137.666a6.0463,6.0463,0,0,1-1.9946,4.8682,6.8475,6.8475,0,0,1-4.5747,1.7012,9.6608,9.6608,0,0,1-2.1118-.2344q-1.878-.5859-3.1675-4.458-1.6443,3.1288-3.7539,3.6865a19.7286,19.7286,0,0,1-6.2173,1.0059q-15.0176,0-21.585-12.0313a28.3217,28.3217,0,0,1-3.7539-14.1348,31.4835,31.4835,0,0,1,7.625-20.791,21.5149,21.5149,0,0,1,17.1275-7.8271,15.0647,15.0647,0,0,1,5.5723.9975q2.5209.9976,3.6953,4.751V84.5244a6.1369,6.1369,0,0,1,1.9355-4.8686,6.7843,6.7843,0,0,1,4.6338-1.7007,6.856,6.856,0,0,1,4.5747,1.7007,6.049,6.049,0,0,1,1.9946,4.8686Zm-13.1386-14.7129V109.5723q0-6.7479-8.212-6.7476-5.6309,0-8.0942,3.0244a18.7648,18.7648,0,0,0-4.3408,12.565q0,5.4711,2.6982,8.7265,3.1677,3.9565,9.2676,3.9561a8.9176,8.9176,0,0,0,4.81-1.9776Q448.5381,126.6773,448.5382,122.9531Z"/><path d="M535.7,109.7461a32.6518,32.6518,0,0,1-5.9834,19.3564A34.2159,34.2159,0,0,1,513.6451,141.42a47.9881,47.9881,0,0,1-17.1279,2.9326H472.4688V76.0781h24.6353q15.952,0,26.8642,8.6807Q535.6974,94.1455,535.7,109.7461Zm-13.14,0a18.0478,18.0478,0,0,0-7.9765-15.6021q-7.0386-4.9276-17.48-4.9272H485.608v41.9971h10.9092a35.7263,35.7263,0,0,0,12.4355-1.9942Q522.56,124.0591,522.56,109.7461Z"/><path d="M581.2154,95.7861a6.91,6.91,0,0,1-1.4082,4.458,5.23,5.23,0,0,1-4.34,2.1114,12.989,12.989,0,0,1-1.76-.1758,13.0792,13.0792,0,0,0-1.76-.1763,15.3857,15.3857,0,0,0-9.7373,3.4024,11.3325,11.3325,0,0,0-4.5742,9.0327v23.3447a6.133,6.133,0,0,1-1.9365,4.8682,6.7789,6.7789,0,0,1-4.6338,1.7011,6.2647,6.2647,0,0,1-4.457-1.6425,6.0586,6.0586,0,0,1-2.1123-4.9268V96.6074a6.1507,6.1507,0,0,1,2.0127-4.6924,6.8663,6.8663,0,0,1,4.8525-1.8769,5.5737,5.5737,0,0,1,4.4394,2.2285,9.7249,9.7249,0,0,1,1.835,6.335v.2348a12.6619,12.6619,0,0,1,8.1709-8.5639,20.5934,20.5934,0,0,1,7.0039-1.4078,13.8838,13.8838,0,0,1,3.15.3521Q581.213,90.5088,581.2154,95.7861Z"/><path d="M601.6265,79.5386a6.57,6.57,0,1,1-13.1386,0,6.2353,6.2353,0,0,1,1.9355-4.5913,6.5529,6.5529,0,0,1,9.2676,0A6.2391,6.2391,0,0,1,601.6265,79.5386Zm0,58.2446a6.1357,6.1357,0,0,1-1.9355,4.8682,6.7821,6.7821,0,0,1-4.6338,1.7011,6.2654,6.2654,0,0,1-4.458-1.6425,6.0579,6.0579,0,0,1-2.1113-4.9268V96.8418a6.0579,6.0579,0,0,1,2.1113-4.9268,6.2759,6.2759,0,0,1,4.458-1.6425,6.7911,6.7911,0,0,1,4.6338,1.7011,6.1385,6.1385,0,0,1,1.9355,4.8682Z"/><path d="M659.9283,96.34a7.416,7.416,0,0,1-.47,2.4966l-12.3194,34.4888q-4.34,11.8506-13.4882,11.9658-9.27,0-13.0215-11.9658l-10.793-34.6064a7.76,7.76,0,0,1-.3516-2.2286,6.0887,6.0887,0,0,1,2.0547-4.6928,6.8423,6.8423,0,0,1,4.7549-1.877q4.4591,0,5.9883,4.5718l7.0273,21.3545q1.5177,4.5747,3.0371,9.1494a50.9444,50.9444,0,0,1,2.1045,8.4463q.5831-4.1074,5.0245-17.0244l7.6269-22.0523q1.5279-4.4436,5.8838-4.4453a7.2816,7.2816,0,0,1,4.8223,1.7837A5.78,5.78,0,0,1,659.9283,96.34Z"/><path d="M716.0025,126.0518H677.7594q3.5185,5.9838,12.4345,5.9834a7.1153,7.1153,0,0,1,5.3965,2.2285,6.4466,6.4466,0,0,1,1.76,4.5752,6.1314,6.1314,0,0,1-1.8184,4.5166,7.2389,7.2389,0,0,1-5.3379,1.8183q-12.3179,0-19.9424-7.5664-7.6273-7.5674-7.625-20.1191,0-13.2546,7.4493-20.9981,7.4472-7.7431,20.3525-7.7426,12.4336,0,19.3564,9.2675,6.2169,8.3305,6.2178,21.2329ZM702.16,112.9141a16.7575,16.7575,0,0,0-3.2851-7.5083,10.5885,10.5885,0,0,0-8.4463-3.52q-12.3164,0-14.3115,11.0279H702.16Z"/><path class="a" d="M89.89,80.26V61.3551a14.929,14.929,0,0,0-14.9879-14.78h-.6678a14.929,14.929,0,0,0-14.9879,14.78V122.45A44.6287,44.6287,0,0,1,89.89,80.26Z"/><path class="a" d="M59.2465,123.927v23.23a14.929,14.929,0,0,0,14.9879,14.78h.6678a15.0274,15.0274,0,0,0,4.7243-.7689A44.3639,44.3639,0,0,1,59.2465,123.927Z"/><path class="a" d="M106.6442,83.7741a39.7335,39.7335,0,1,0,39.7335,39.7335A39.7335,39.7335,0,0,0,106.6442,83.7741Zm0,57.798a18.0645,18.0645,0,1,1,18.0645-18.0645A18.0645,18.0645,0,0,1,106.6442,141.5721Z"/></svg>