<svg xmlns="http://www.w3.org/2000/svg" width="184.418" height="192.696" viewBox="0 0 184.418 192.696">
  <g id="buildings" transform="translate(-10.998)">
    <path id="Path_814" data-name="Path 814" d="M134.9,176.614l47.2-14.649A92.219,92.219,0,1,0,35.334,176.614Z" transform="translate(0 -13.718)" fill="#4fabf7"/>
    <path id="Path_815" data-name="Path 815" d="M310.68,36.3a6.217,6.217,0,0,1,7.864-5.561,1.658,1.658,0,0,0,1.78-.575,11.264,11.264,0,0,1,19.632,3.422,1.643,1.643,0,0,0,1.773,1.1,6.85,6.85,0,0,1,6.6,3.237,1.655,1.655,0,0,0,2.226.568,5.238,5.238,0,1,1,2.531,9.823H308.914a5.344,5.344,0,0,1-5.365-5.332,5.247,5.247,0,0,1,5.457-5.143,1.627,1.627,0,0,0,1.675-1.54Z" transform="translate(-182.446 -16.082)" fill="#73c3f9"/>
    <path id="Path_816" data-name="Path 816" d="M235.559,91.307a9.59,9.59,0,0,1,12.133-8.579,2.56,2.56,0,0,0,2.746-.888,17.378,17.378,0,0,1,30.287,5.279,2.535,2.535,0,0,0,2.735,1.7,10.567,10.567,0,0,1,10.184,4.994,2.553,2.553,0,0,0,3.434.876,8.081,8.081,0,1,1,3.9,15.154H232.833a8.245,8.245,0,0,1-8.277-8.225,8.1,8.1,0,0,1,8.418-7.935,2.512,2.512,0,0,0,2.584-2.378Z" transform="translate(-133.183 -46.827)" fill="#9bd8f9"/>
    <path id="Path_817" data-name="Path 817" d="M83.39,201.826a8.078,8.078,0,0,0-11.934-6.148,2.553,2.553,0,0,1-3.434-.876,10.567,10.567,0,0,0-10.184-4.994,2.535,2.535,0,0,1-2.735-1.7,17.378,17.378,0,0,0-30.287-5.279,2.56,2.56,0,0,1-2.746.888,9.381,9.381,0,0,0-7.476,1.006A92.253,92.253,0,0,0,11,210.294c0,.18.005.359.006.539H75.362a8.082,8.082,0,0,0,8.029-9.006Z" transform="translate(-0.001 -109.807)" fill="#73c3f9"/>
    <path id="Path_818" data-name="Path 818" d="M334.023,228.774h-.575v41.649a92.637,92.637,0,0,0,36.106-34.252V169.527l-58.409-27.8v77.848h22.878a4.6,4.6,0,1,1,0,9.2Z" transform="translate(-187.184 -88.384)" fill="#3c58a0"/>
    <path id="Path_819" data-name="Path 819" d="M311.146,219.571H334.04V219c-4.588-1.365-4.319-6.412-4.319-6.412V160.833c0-5.269,4.66-4.87,4.66-4.87l-.568-3.45-22.667-10.79v77.848Z" transform="translate(-187.184 -88.384)" fill="#2a428c"/>
    <path id="Path_820" data-name="Path 820" d="M74.728,309.043a92.015,92.015,0,0,0,55.961,29.363V287.1h21.659V234.948H74.728Z" transform="translate(-39.745 -146.523)" fill="#dae2fe"/>
    <path id="Path_821" data-name="Path 821" d="M95.062,249.39A14.442,14.442,0,0,1,109.5,234.948H74.728v74.1a92.616,92.616,0,0,0,20.334,16.773Z" transform="translate(-39.745 -146.523)" fill="#bec8f7"/>
    <path id="Path_822" data-name="Path 822" d="M97.843,121.263h60.221v43.17H97.843Z" transform="translate(-54.16 -75.625)" fill="#dae2fe"/>
    <path id="Path_823" data-name="Path 823" d="M114.037,154.227V131.469a10.206,10.206,0,0,1,10.206-10.206h-26.4v43.17h26.4A10.206,10.206,0,0,1,114.037,154.227Z" transform="translate(-54.16 -75.625)" fill="#bec8f7"/>
    <g id="Group_528" data-name="Group 528" transform="translate(70.917)">
      <path id="Path_824" data-name="Path 824" d="M173.082,17.627a2.876,2.876,0,0,1-2.876-2.876V2.876a2.876,2.876,0,1,1,5.752,0V14.751A2.877,2.877,0,0,1,173.082,17.627Z" transform="translate(-170.206)" fill="#dae2fe"/>
    </g>
    <g id="Group_529" data-name="Group 529" transform="translate(43.61 98.389)">
      <path id="Path_825" data-name="Path 825" d="M100.526,261.422A2.876,2.876,0,0,0,97.65,264.3v69.578q2.784,2.361,5.752,4.5V264.3a2.876,2.876,0,0,0-2.876-2.876Z" transform="translate(-97.65 -261.422)" fill="#a8b7ef"/>
      <path id="Path_826" data-name="Path 826" d="M129.548,261.422a2.876,2.876,0,0,0-2.876,2.876v77.545q2.81,1.75,5.752,3.3V264.3A2.876,2.876,0,0,0,129.548,261.422Z" transform="translate(-115.749 -261.422)" fill="#a8b7ef"/>
      <path id="Path_827" data-name="Path 827" d="M158.571,261.422A2.876,2.876,0,0,0,155.7,264.3V347.67q2.827,1.27,5.752,2.352V264.3A2.876,2.876,0,0,0,158.571,261.422Z" transform="translate(-133.849 -261.422)" fill="#a8b7ef"/>
      <path id="Path_828" data-name="Path 828" d="M187.593,261.422a2.876,2.876,0,0,0-2.876,2.876V351.76q2.839.862,5.752,1.547V264.3A2.877,2.877,0,0,0,187.593,261.422Z" transform="translate(-151.948 -261.422)" fill="#a8b7ef"/>
    </g>
    <g id="Group_530" data-name="Group 530" transform="translate(87.301 98.389)">
      <path id="Path_829" data-name="Path 829" d="M216.614,290.193a2.876,2.876,0,0,1-2.876-2.876V264.3a2.876,2.876,0,0,1,5.752,0v23.019A2.876,2.876,0,0,1,216.614,290.193Z" transform="translate(-213.738 -261.422)" fill="#a8b7ef"/>
    </g>
    <g id="Group_531" data-name="Group 531" transform="translate(54.533 53.252)">
      <path id="Path_830" data-name="Path 830" d="M129.549,170.146a2.876,2.876,0,0,1-2.876-2.876v-22.9a2.876,2.876,0,1,1,5.752,0v22.9A2.877,2.877,0,0,1,129.549,170.146Z" transform="translate(-126.673 -141.492)" fill="#a8b7ef"/>
    </g>
    <g id="Group_532" data-name="Group 532" transform="translate(65.456 53.252)">
      <path id="Path_831" data-name="Path 831" d="M158.571,170.146a2.876,2.876,0,0,1-2.876-2.876v-22.9a2.876,2.876,0,1,1,5.752,0v22.9A2.877,2.877,0,0,1,158.571,170.146Z" transform="translate(-155.695 -141.492)" fill="#a8b7ef"/>
    </g>
    <g id="Group_533" data-name="Group 533" transform="translate(76.379 53.252)">
      <path id="Path_832" data-name="Path 832" d="M187.593,170.146a2.876,2.876,0,0,1-2.876-2.876v-22.9a2.876,2.876,0,1,1,5.752,0v22.9A2.877,2.877,0,0,1,187.593,170.146Z" transform="translate(-184.717 -141.492)" fill="#a8b7ef"/>
    </g>
    <g id="Group_534" data-name="Group 534" transform="translate(87.302 53.252)">
      <path id="Path_833" data-name="Path 833" d="M216.615,170.146a2.876,2.876,0,0,1-2.876-2.876v-22.9a2.876,2.876,0,1,1,5.752,0v22.9A2.876,2.876,0,0,1,216.615,170.146Z" transform="translate(-213.739 -141.492)" fill="#a8b7ef"/>
    </g>
    <g id="Group_535" data-name="Group 535" transform="translate(87.301 53.252)">
      <path id="Path_834" data-name="Path 834" d="M216.614,170.146a2.876,2.876,0,0,1-2.876-2.876v-22.9a2.876,2.876,0,0,1,5.752,0v22.9A2.876,2.876,0,0,1,216.614,170.146Z" transform="translate(-213.738 -141.492)" fill="#a8b7ef"/>
    </g>
    <g id="Group_536" data-name="Group 536" transform="translate(98.224 98.389)">
      <path id="Path_835" data-name="Path 835" d="M245.637,290.193a2.876,2.876,0,0,1-2.876-2.876V264.3a2.876,2.876,0,0,1,5.752,0v23.019a2.876,2.876,0,0,1-2.876,2.876Z" transform="translate(-242.761 -261.422)" fill="#a8b7ef"/>
    </g>
    <path id="Path_836" data-name="Path 836" d="M135.937,44.867h31.547V73.619H135.937Z" transform="translate(-77.917 -27.981)" fill="#dae2fe"/>
    <path id="Path_837" data-name="Path 837" d="M149.12,64.919V53.568a8.7,8.7,0,0,1,8.7-8.7H135.937V73.619h21.884A8.7,8.7,0,0,1,149.12,64.919Z" transform="translate(-77.917 -27.981)" fill="#bec8f7"/>
    <path id="Path_838" data-name="Path 838" d="M221.381,373.53v51.194a92.982,92.982,0,0,0,13.029.921,91.794,91.794,0,0,0,43.648-10.969V373.53Z" transform="translate(-131.203 -232.948)" fill="#ffc839"/>
    <path id="Path_839" data-name="Path 839" d="M241.77,412.643V386.53a13,13,0,0,1,13-13h-33.39v51.194a92.853,92.853,0,0,0,27.9-.275A13.025,13.025,0,0,1,241.77,412.643Z" transform="translate(-131.203 -232.948)" fill="#ffb332"/>
    <g id="Group_537" data-name="Group 537" transform="translate(133.191 90.297)">
      <path id="Path_840" data-name="Path 840" d="M372.36,245.674H338.546a2.876,2.876,0,0,1,0-5.752H372.36a2.876,2.876,0,0,1,0,5.752Z" transform="translate(-335.67 -239.922)" fill="#73c3f9"/>
    </g>
    <g id="Group_538" data-name="Group 538" transform="translate(133.191 102.415)">
      <path id="Path_841" data-name="Path 841" d="M372.36,277.873H338.546a2.876,2.876,0,1,1,0-5.752H372.36a2.876,2.876,0,0,1,0,5.752Z" transform="translate(-335.67 -272.121)" fill="#73c3f9"/>
    </g>
    <g id="Group_539" data-name="Group 539" transform="translate(133.191 114.534)">
      <path id="Path_842" data-name="Path 842" d="M372.36,310.073H338.546a2.876,2.876,0,0,1,0-5.752H372.36a2.876,2.876,0,0,1,0,5.752Z" transform="translate(-335.67 -304.321)" fill="#73c3f9"/>
    </g>
    <g id="Group_540" data-name="Group 540" transform="translate(155.869 126.653)">
      <path id="Path_843" data-name="Path 843" d="M409.937,342.272H398.8a2.876,2.876,0,1,1,0-5.752h11.137a2.876,2.876,0,1,1,0,5.752Z" transform="translate(-395.924 -336.52)" fill="#73c3f9"/>
    </g>
    <g id="Group_541" data-name="Group 541" transform="translate(155.869 138.771)">
      <path id="Path_844" data-name="Path 844" d="M409.937,374.471H398.8a2.876,2.876,0,1,1,0-5.752h11.137a2.876,2.876,0,1,1,0,5.752Z" transform="translate(-395.924 -368.719)" fill="#73c3f9"/>
    </g>
    <g id="Group_542" data-name="Group 542" transform="translate(153.568 150.89)">
      <path id="Path_845" data-name="Path 845" d="M406.125,406.671H392.687a2.876,2.876,0,1,1,0-5.752h13.438a2.876,2.876,0,1,1,0,5.752Z" transform="translate(-389.811 -400.919)" fill="#73c3f9"/>
    </g>
    <path id="Path_846" data-name="Path 846" d="M406.124,433.118H392.686a2.876,2.876,0,0,0,0,5.752h8.742q2.941-2.671,5.64-5.59A2.865,2.865,0,0,0,406.124,433.118Z" transform="translate(-236.242 -270.11)" fill="#73c3f9"/>
    <g id="Group_543" data-name="Group 543" transform="translate(120.433 50.136)">
      <path id="Path_847" data-name="Path 847" d="M364.055,167.271a2.861,2.861,0,0,1-1.235-.28l-59.411-28.3a2.876,2.876,0,1,1,2.474-5.193l59.411,28.3a2.877,2.877,0,0,1-1.239,5.473Z" transform="translate(-301.769 -133.213)" fill="#4f71b6"/>
    </g>
    <g id="Group_544" data-name="Group 544" transform="translate(99.256 149.039)">
      <path id="Path_848" data-name="Path 848" d="M248.379,405.262a2.876,2.876,0,0,1-2.876-2.876v-3.508a2.876,2.876,0,0,1,5.752,0v3.508a2.876,2.876,0,0,1-2.876,2.876Z" transform="translate(-245.503 -396.001)" fill="#ff9100"/>
    </g>
    <g id="Group_545" data-name="Group 545" transform="translate(110.179 149.039)">
      <path id="Path_849" data-name="Path 849" d="M277.4,405.262a2.876,2.876,0,0,1-2.876-2.876v-3.508a2.876,2.876,0,1,1,5.752,0v3.508A2.876,2.876,0,0,1,277.4,405.262Z" transform="translate(-274.525 -396.001)" fill="#ff9100"/>
    </g>
    <g id="Group_546" data-name="Group 546" transform="translate(121.102 149.039)">
      <path id="Path_850" data-name="Path 850" d="M306.423,405.262a2.876,2.876,0,0,1-2.876-2.876v-3.508a2.876,2.876,0,0,1,5.752,0v3.508A2.876,2.876,0,0,1,306.423,405.262Z" transform="translate(-303.547 -396.001)" fill="#ff9100"/>
    </g>
    <g id="Group_547" data-name="Group 547" transform="translate(132.025 149.039)">
      <path id="Path_851" data-name="Path 851" d="M335.446,405.262a2.876,2.876,0,0,1-2.876-2.876v-3.508a2.876,2.876,0,0,1,5.752,0v3.508A2.877,2.877,0,0,1,335.446,405.262Z" transform="translate(-332.57 -396.001)" fill="#ff9100"/>
    </g>
    <g id="Group_548" data-name="Group 548" transform="translate(99.256 163.916)">
      <path id="Path_852" data-name="Path 852" d="M248.379,444.792a2.876,2.876,0,0,1-2.876-2.876v-3.508a2.876,2.876,0,1,1,5.752,0v3.508a2.876,2.876,0,0,1-2.876,2.876Z" transform="translate(-245.503 -435.531)" fill="#ff9100"/>
    </g>
    <g id="Group_549" data-name="Group 549" transform="translate(110.179 163.916)">
      <path id="Path_853" data-name="Path 853" d="M277.4,444.792a2.876,2.876,0,0,1-2.876-2.876v-3.508a2.876,2.876,0,1,1,5.752,0v3.508A2.876,2.876,0,0,1,277.4,444.792Z" transform="translate(-274.525 -435.531)" fill="#ff9100"/>
    </g>
    <g id="Group_550" data-name="Group 550" transform="translate(121.102 163.916)">
      <path id="Path_854" data-name="Path 854" d="M306.423,444.792a2.876,2.876,0,0,1-2.876-2.876v-3.508a2.876,2.876,0,1,1,5.752,0v3.508A2.876,2.876,0,0,1,306.423,444.792Z" transform="translate(-303.547 -435.531)" fill="#ff9100"/>
    </g>
    <g id="Group_551" data-name="Group 551" transform="translate(132.025 163.916)">
      <path id="Path_855" data-name="Path 855" d="M335.446,444.792a2.876,2.876,0,0,1-2.876-2.876v-3.508a2.876,2.876,0,1,1,5.752,0v3.508A2.876,2.876,0,0,1,335.446,444.792Z" transform="translate(-332.57 -435.531)" fill="#ff9100"/>
    </g>
    <g id="Group_552" data-name="Group 552" transform="translate(99.256 178.794)">
      <path id="Path_856" data-name="Path 856" d="M248.379,484.323a2.876,2.876,0,0,1-2.876-2.876v-3.508a2.876,2.876,0,1,1,5.752,0v3.508a2.876,2.876,0,0,1-2.876,2.876Z" transform="translate(-245.503 -475.062)" fill="#ff9100"/>
    </g>
    <g id="Group_553" data-name="Group 553" transform="translate(110.179 178.794)">
      <path id="Path_857" data-name="Path 857" d="M277.4,484.323a2.876,2.876,0,0,1-2.876-2.876v-3.508a2.876,2.876,0,1,1,5.752,0v3.508A2.876,2.876,0,0,1,277.4,484.323Z" transform="translate(-274.525 -475.062)" fill="#ff9100"/>
    </g>
    <g id="Group_554" data-name="Group 554" transform="translate(121.102 178.794)">
      <path id="Path_858" data-name="Path 858" d="M306.423,484.323a2.876,2.876,0,0,1-2.876-2.876v-3.508a2.876,2.876,0,1,1,5.752,0v3.508A2.876,2.876,0,0,1,306.423,484.323Z" transform="translate(-303.547 -475.062)" fill="#ff9100"/>
    </g>
    <path id="Path_859" data-name="Path 859" d="M335.446,475.062a2.876,2.876,0,0,0-2.876,2.876v3.508a2.871,2.871,0,0,0,1.38,2.453q2.144-.743,4.239-1.587a2.872,2.872,0,0,0,.133-.866v-3.508A2.876,2.876,0,0,0,335.446,475.062Z" transform="translate(-200.545 -296.268)" fill="#ff9100"/>
    <g id="Group_555" data-name="Group 555" transform="translate(85.001 130.611)">
      <path id="Path_860" data-name="Path 860" d="M269.481,357.393H212.8a5.177,5.177,0,0,1,0-10.354H269.48a5.177,5.177,0,0,1,0,10.354Z" transform="translate(-207.626 -347.039)" fill="#ffdd40"/>
    </g>
    <path id="Path_861" data-name="Path 861" d="M236.305,352.216a5.177,5.177,0,0,1,5.177-5.177H212.8a5.177,5.177,0,0,0,0,10.354h28.679A5.177,5.177,0,0,1,236.305,352.216Z" transform="translate(-122.625 -216.428)" fill="#ffc839"/>
    <g id="Group_556" data-name="Group 556" transform="translate(55.144 14.01)">
      <path id="Path_862" data-name="Path 862" d="M162.718,42.976H131.171a2.876,2.876,0,0,1,0-5.752h31.547a2.876,2.876,0,0,1,0,5.752Z" transform="translate(-128.295 -37.224)" fill="#e9efff"/>
    </g>
    <g id="Group_557" data-name="Group 557" transform="translate(40.807 42.762)">
      <path id="Path_863" data-name="Path 863" d="M153.3,119.373H93.077a2.876,2.876,0,1,1,0-5.752H153.3a2.876,2.876,0,1,1,0,5.752Z" transform="translate(-90.201 -113.621)" fill="#e9efff"/>
    </g>
    <g id="Group_558" data-name="Group 558" transform="translate(32.107 85.549)">
      <path id="Path_864" data-name="Path 864" d="M147.582,233.058H69.962a2.876,2.876,0,1,1,0-5.752h77.62a2.876,2.876,0,1,1,0,5.752Z" transform="translate(-67.086 -227.306)" fill="#e9efff"/>
    </g>
    <g id="Group_559" data-name="Group 559" transform="translate(65.456 24.026)">
      <path id="Path_865" data-name="Path 865" d="M158.571,77.673A2.876,2.876,0,0,1,155.7,74.8V66.714a2.876,2.876,0,1,1,5.752,0V74.8A2.876,2.876,0,0,1,158.571,77.673Z" transform="translate(-155.695 -63.838)" fill="#a8b7ef"/>
    </g>
    <g id="Group_560" data-name="Group 560" transform="translate(76.379 24.026)">
      <path id="Path_866" data-name="Path 866" d="M187.593,77.673a2.876,2.876,0,0,1-2.876-2.876V66.714a2.876,2.876,0,0,1,5.752,0V74.8A2.876,2.876,0,0,1,187.593,77.673Z" transform="translate(-184.717 -63.838)" fill="#a8b7ef"/>
    </g>
  </g>
</svg>
