<svg id="logo-bg" xmlns="http://www.w3.org/2000/svg" width="1001.754" height="1341.332" viewBox="0 0 1001.754 1341.332">
  <path id="Path_886" data-name="Path 886" d="M434.749,435.158V217.817c0-93.471-77.548-169.939-172.319-169.939h-7.68c-94.771,0-172.319,76.467-172.319,169.939V920.232C82.432,694.992,229.894,503.83,434.749,435.158Z" transform="translate(-82.432 -47.878)" fill="#fafafa"/>
  <path id="Path_887" data-name="Path 887" d="M82.432,125.231V392.309c0,93.46,77.548,169.927,172.319,169.927h7.68a172.662,172.662,0,0,0,54.312-8.841C175.639,461.785,82.432,304.275,82.432,125.231Z" transform="translate(-82.432 764.104)" fill="#fafafa"/>
  <path id="Path_888" data-name="Path 888" d="M546.922,85.078C294.629,85.078,90.1,289.6,90.1,541.892S294.629,998.718,546.922,998.718s456.814-204.533,456.814-456.826S799.214,85.078,546.922,85.078Zm0,664.509c-114.707,0-207.695-92.989-207.695-207.7s92.988-207.683,207.695-207.683,207.683,92.977,207.683,207.683S661.629,749.587,546.922,749.587Z" transform="translate(-1.982 342.614)" fill="#fafafa"/>
</svg>
